<svg width="41" height="40" viewBox="0 0 41 40" fill="none" xmlns="http://www.w3.org/2000/svg">
<rect x="0.5" width="40" height="40" rx="20" fill="#4377FF"/>
<g clip-path="url(#clip0_12_109)">
<path d="M11.3334 20C11.3334 20 14.6667 13.3334 20.5 13.3334C26.3334 13.3334 29.6667 20 29.6667 20C29.6667 20 26.3334 26.6667 20.5 26.6667C14.6667 26.6667 11.3334 20 11.3334 20Z" stroke="white" stroke-width="1.66667" stroke-linecap="round" stroke-linejoin="round"/>
<path d="M20.5 22.5C21.8807 22.5 23 21.3807 23 20C23 18.6193 21.8807 17.5 20.5 17.5C19.1193 17.5 18 18.6193 18 20C18 21.3807 19.1193 22.5 20.5 22.5Z" stroke="white" stroke-width="1.66667" stroke-linecap="round" stroke-linejoin="round"/>
</g>
<defs>
<clipPath id="clip0_12_109">
<rect width="20" height="20" fill="white" transform="translate(10.5 10)"/>
</clipPath>
</defs>
</svg>
