<svg width="41" height="40" viewBox="0 0 41 40" fill="none" xmlns="http://www.w3.org/2000/svg">
<rect x="0.5" width="40" height="40" rx="20" fill="#4377FF"/>
<path d="M26.3333 19.1666H14.6667C13.7462 19.1666 13 19.9128 13 20.8333V26.6666C13 27.5871 13.7462 28.3333 14.6667 28.3333H26.3333C27.2538 28.3333 28 27.5871 28 26.6666V20.8333C28 19.9128 27.2538 19.1666 26.3333 19.1666Z" stroke="white" stroke-width="1.66667" stroke-linecap="round" stroke-linejoin="round"/>
<path d="M16.3334 19.1666V15.8333C16.3334 14.7282 16.7724 13.6684 17.5538 12.887C18.3352 12.1056 19.395 11.6666 20.5 11.6666C21.6051 11.6666 22.6649 12.1056 23.4463 12.887C24.2277 13.6684 24.6667 14.7282 24.6667 15.8333V19.1666" stroke="white" stroke-width="1.66667" stroke-linecap="round" stroke-linejoin="round"/>
</svg>
